<?xml version="1.0" encoding="UTF-8" standalone="no"?>
<!DOCTYPE svg PUBLIC "-//W3C//DTD SVG 1.1//EN" "http://www.w3.org/Graphics/SVG/1.1/DTD/svg11.dtd">
<svg width="100%" height="100%" viewBox="0 0 1000 1000" version="1.1" xmlns="http://www.w3.org/2000/svg" xmlns:xlink="http://www.w3.org/1999/xlink" xml:space="preserve" xmlns:serif="http://www.serif.com/" style="fill-rule:evenodd;clip-rule:evenodd;stroke-linejoin:round;stroke-miterlimit:2;">
    <g transform="matrix(1.13453,0,0,1.24033,332.36,536.193)">
        <path d="M69.727,-144.141L19.922,-153.125C25.521,-173.177 35.156,-188.021 48.828,-197.656C62.5,-207.292 82.813,-212.109 109.766,-212.109C134.245,-212.109 152.474,-209.212 164.453,-203.418C176.432,-197.624 184.863,-190.267 189.746,-181.348C194.629,-172.428 197.07,-156.055 197.07,-132.227L196.484,-68.164C196.484,-49.935 197.363,-36.491 199.121,-27.832C200.879,-19.173 204.167,-9.896 208.984,0L154.688,0C153.255,-3.646 151.497,-9.049 149.414,-16.211C148.503,-19.466 147.852,-21.615 147.461,-22.656C138.086,-13.542 128.06,-6.706 117.383,-2.148C106.706,2.409 95.313,4.687 83.203,4.688C61.849,4.687 45.02,-1.107 32.715,-12.695C20.41,-24.284 14.258,-38.932 14.258,-56.641C14.258,-68.359 17.057,-78.809 22.656,-87.988C28.255,-97.168 36.1,-104.199 46.191,-109.082C56.283,-113.965 70.833,-118.229 89.844,-121.875C115.495,-126.693 133.268,-131.185 143.164,-135.352L143.164,-140.82C143.164,-151.367 140.56,-158.887 135.352,-163.379C130.143,-167.871 120.313,-170.117 105.859,-170.117C96.094,-170.117 88.477,-168.197 83.008,-164.355C77.539,-160.514 73.112,-153.776 69.727,-144.141ZM143.164,-99.609C136.133,-97.266 125,-94.466 109.766,-91.211C94.531,-87.956 84.57,-84.766 79.883,-81.641C72.721,-76.563 69.141,-70.117 69.141,-62.305C69.141,-54.622 72.005,-47.982 77.734,-42.383C83.464,-36.784 90.755,-33.984 99.609,-33.984C109.505,-33.984 118.945,-37.24 127.93,-43.75C134.57,-48.698 138.932,-54.753 141.016,-61.914C142.448,-66.602 143.164,-75.521 143.164,-88.672L143.164,-99.609Z" style="fill:rgb(2,138,15);fill-rule:nonzero;"/>
    </g>
    <g transform="matrix(0.747354,0,0,0.817047,355.566,793.547)">
        <g transform="matrix(400,0,0,400,0,0)">
            <path d="M0.072,-0.589L0.072,-0.716L0.209,-0.716L0.209,-0.589L0.072,-0.589ZM0.072,-0L0.072,-0.519L0.209,-0.519L0.209,-0L0.072,-0Z" style="fill:rgb(2,138,15);fill-rule:nonzero;"/>
        </g>
        <g transform="matrix(400,0,0,400,111.133,0)">
            <path d="M0.31,-0.519L0.31,-0.409L0.216,-0.409L0.216,-0.2C0.216,-0.158 0.217,-0.133 0.219,-0.126C0.22,-0.119 0.224,-0.113 0.231,-0.109C0.237,-0.104 0.245,-0.102 0.254,-0.102C0.267,-0.102 0.285,-0.106 0.309,-0.115L0.321,-0.009C0.289,0.005 0.253,0.012 0.212,0.012C0.188,0.012 0.165,0.008 0.146,-0.001C0.126,-0.009 0.111,-0.02 0.102,-0.033C0.093,-0.046 0.086,-0.064 0.083,-0.086C0.08,-0.102 0.078,-0.135 0.078,-0.183L0.078,-0.409L0.015,-0.409L0.015,-0.519L0.078,-0.519L0.078,-0.622L0.216,-0.702L0.216,-0.519L0.31,-0.519Z" style="fill:rgb(2,138,15);fill-rule:nonzero;"/>
        </g>
        <g transform="matrix(400,0,0,400,244.336,0)">
            <path d="M0.372,-0.165L0.509,-0.142C0.491,-0.092 0.463,-0.054 0.426,-0.028C0.388,-0.001 0.34,0.012 0.283,0.012C0.193,0.012 0.126,-0.018 0.083,-0.077C0.049,-0.124 0.032,-0.183 0.032,-0.255C0.032,-0.341 0.054,-0.409 0.099,-0.457C0.144,-0.506 0.201,-0.53 0.27,-0.53C0.347,-0.53 0.408,-0.505 0.452,-0.454C0.497,-0.403 0.518,-0.325 0.516,-0.22L0.172,-0.22C0.173,-0.179 0.184,-0.147 0.206,-0.125C0.227,-0.102 0.253,-0.091 0.285,-0.091C0.306,-0.091 0.324,-0.097 0.339,-0.108C0.354,-0.12 0.365,-0.139 0.372,-0.165ZM0.38,-0.304C0.379,-0.343 0.369,-0.374 0.349,-0.394C0.33,-0.415 0.306,-0.425 0.278,-0.425C0.248,-0.425 0.223,-0.414 0.204,-0.393C0.184,-0.371 0.174,-0.341 0.175,-0.304L0.38,-0.304Z" style="fill:rgb(2,138,15);fill-rule:nonzero;"/>
        </g>
    </g>
    <g transform="matrix(1.13453,0,0,1.24033,-138.215,50.6541)">
        <path d="M656.899,391.954L647.979,391.954L647.979,227.697L617.51,227.697L617.51,184.533L647.979,184.533L647.979,168.908C647.979,151.46 649.834,138.439 653.545,129.845C657.256,121.251 664.092,114.253 674.053,108.849C684.014,103.445 696.612,100.744 711.846,100.744C727.471,100.744 742.771,103.087 757.744,107.775L750.323,146.056C741.599,143.973 733.2,142.931 725.127,142.931C717.185,142.931 711.488,144.786 708.037,148.497C704.587,152.208 702.862,159.337 702.862,169.884L702.862,184.533L743.877,184.533L743.877,227.697L702.862,227.697L702.862,391.954L688.943,391.954C687.071,373.621 665.81,159.893 689.228,135.182C694.432,138.756 695.479,138.515 702.323,137.339C704.003,137.05 728.896,129.901 734.067,127.914C734.818,127.625 734.308,125.74 733.57,125.859C732.32,126.06 709.656,130.402 707.365,130.852C705.94,131.132 705.485,127.976 706.602,127.66C707.57,127.387 731.197,120.832 732.482,120.441C733.62,120.094 732.931,117.628 731.825,117.775C729.737,118.05 707.571,122.189 705.343,122.596C703.999,122.841 703.127,119.486 704.679,119.05C706.929,118.418 729.488,112.857 730.459,112.596C731.268,112.38 731.081,110.397 730.106,110.427C728.265,110.483 704.511,113.731 697.873,115.494C688.365,117.986 688.023,122.029 685.176,126.523C656.227,148.597 672.23,342.544 656.899,391.954Z" style="fill:rgb(2,138,15);fill-rule:nonzero;"/>
    </g>
    <g transform="matrix(1.06701,0,0,1.16651,689.356,532.315)">
        <g transform="matrix(400,0,0,400,0,0)">
            <path d="M0.372,-0.165L0.509,-0.142C0.491,-0.092 0.463,-0.054 0.426,-0.028C0.388,-0.001 0.34,0.012 0.283,0.012C0.193,0.012 0.126,-0.018 0.083,-0.077C0.049,-0.124 0.032,-0.183 0.032,-0.255C0.032,-0.341 0.054,-0.409 0.099,-0.457C0.144,-0.506 0.201,-0.53 0.27,-0.53C0.347,-0.53 0.408,-0.505 0.452,-0.454C0.497,-0.403 0.518,-0.325 0.516,-0.22L0.172,-0.22C0.173,-0.179 0.184,-0.147 0.206,-0.125C0.227,-0.102 0.253,-0.091 0.285,-0.091C0.306,-0.091 0.324,-0.097 0.339,-0.108C0.354,-0.12 0.365,-0.139 0.372,-0.165ZM0.38,-0.304C0.379,-0.343 0.369,-0.374 0.349,-0.394C0.33,-0.415 0.306,-0.425 0.278,-0.425C0.248,-0.425 0.223,-0.414 0.204,-0.393C0.184,-0.371 0.174,-0.341 0.175,-0.304L0.38,-0.304Z" style="fill:rgb(2,138,15);fill-rule:nonzero;"/>
        </g>
    </g>
    <path d="M187.248,232.485C187.947,232.479 188.65,232.476 189.355,232.476C234.862,232.476 269.116,243.398 292.117,265.241C315.118,287.083 327.195,316.237 328.35,352.702L255.142,356.222C252.009,335.824 245.291,321.156 234.985,312.221C224.68,303.285 209.223,298.817 188.613,298.817C167.343,298.817 150.69,303.601 138.654,313.168C130.904,319.306 127.029,327.52 127.029,337.809C127.029,347.196 130.657,355.23 137.912,361.909C147.145,370.393 169.569,379.239 205.183,388.445C240.798,397.652 267.137,407.174 284.203,417.012C301.268,426.851 314.623,440.299 324.269,457.359C333.914,474.418 338.737,495.493 338.737,520.586C338.737,543.331 332.966,564.632 321.425,584.489C316.648,592.708 311.052,600.052 304.593,606.469L304.74,606.55C317.374,613.402 327.667,622.567 335.649,633.976C347.52,650.945 353.456,670.892 353.456,693.818C353.456,711.87 349.622,729.426 341.955,746.485C334.288,763.544 323.818,777.173 310.545,787.373C297.273,797.572 280.908,803.845 261.452,806.192C249.251,807.636 219.82,808.539 173.158,808.9L49.744,808.9L49.744,540.083L128.212,540.083C131.907,546.784 136.259,552.466 141.25,557.141C147.084,562.603 153.823,566.85 161.496,569.801L161.608,569.847C171.088,573.678 181.995,575.554 194.301,575.554C215.816,575.554 232.491,571.007 244.285,561.848L247.599,559.172C254.842,552.554 259.89,545.258 262.71,537.266L262.737,537.165C263.867,532.906 264.42,528.258 264.42,523.227C264.42,511.81 261.745,502.384 256.363,494.979L256.306,494.915C251.507,489.57 244.106,484.833 234.11,480.714L233.632,480.518L231.647,479.698C223.073,476.448 203.534,470.672 173.031,462.368C133.79,451.717 106.254,438.63 90.426,423.105C86.771,419.518 83.416,415.803 80.385,411.937L80.294,411.822C64.781,392.297 57.037,369.425 57.037,343.225C57.037,333.237 58.315,323.569 60.871,314.218C78.618,312.565 92.97,304.922 97.653,294.952C101.876,296.703 106.506,297.67 111.36,297.67C128.612,297.67 143.034,285.454 146.439,269.204C166.77,267.293 183.278,252.148 187.248,232.485ZM122.952,635.872L182.062,635.872C207.429,635.872 226.029,636.971 237.857,639.199L238.416,639.306C241.871,639.939 244.726,640.7 246.984,641.558C256.959,645.349 264.585,651.396 269.861,659.7C275.137,668.004 277.775,678.113 277.775,690.027C277.775,704.108 274.354,715.345 267.511,723.739C260.669,732.134 251.806,737.414 240.924,739.58C233.834,741.205 217.099,742.017 190.718,742.017L122.952,742.017L122.952,635.872ZM135.882,635.496C136.029,635.541 136.175,635.585 136.322,635.629L135.442,635.362L135.882,635.496ZM135.08,635.251L135.211,635.291L135.08,635.251ZM245.041,561.389L245.183,561.301L244.441,561.755L245.041,561.389ZM245.774,560.924L245.646,561.007C245.689,560.979 245.731,560.952 245.774,560.924ZM246.394,560.513L246.537,560.416L246.394,560.513ZM247.146,559.988L246.771,560.255L247.701,559.592L248.227,559.199L247.146,559.988ZM249.046,558.56L249.06,558.549L249.046,558.56ZM249.848,557.901L249.193,558.442C249.413,558.264 249.632,558.083 249.848,557.901ZM250.843,557.032L250.303,557.511C250.485,557.353 250.665,557.193 250.843,557.032ZM252.185,555.766L252.054,555.895C252.098,555.852 252.142,555.809 252.185,555.766ZM252.551,555.401L252.418,555.535C252.462,555.49 252.507,555.445 252.551,555.401ZM253.581,554.319C253.467,554.443 253.352,554.567 253.237,554.69C253.121,554.812 253.005,554.934 252.888,555.055C253.122,554.813 253.353,554.568 253.581,554.319ZM254.014,553.84L253.67,554.222C253.786,554.096 253.9,553.968 254.014,553.84ZM255.563,551.985C255.462,552.114 255.36,552.243 255.257,552.371C255.154,552.499 255.05,552.626 254.945,552.753C255.154,552.499 255.36,552.243 255.563,551.985ZM256.71,550.441C256.605,550.59 256.499,550.738 256.392,550.886C256.284,551.033 256.176,551.18 256.067,551.326C256.286,551.034 256.5,550.739 256.71,550.441ZM256.783,550.336L256.74,550.397L256.783,550.336ZM258.855,547.024L258.743,547.223C258.781,547.157 258.818,547.091 258.855,547.024ZM262.655,537.478L262.671,537.42L262.643,537.524L262.655,537.478ZM262.842,536.902L262.8,537.019L262.874,536.811L262.842,536.902ZM263.218,535.799C263.125,536.084 263.029,536.367 262.931,536.65C263.029,536.367 263.125,536.084 263.218,535.799C263.311,535.515 263.402,535.229 263.489,534.943L263.218,535.799ZM264.654,530.246C264.503,531.027 264.333,531.801 264.143,532.57C263.954,533.339 263.744,534.101 263.515,534.857C263.973,533.345 264.353,531.808 264.654,530.246ZM264.958,528.477L264.822,529.325L264.936,528.635L264.989,528.283L265.12,527.347L264.958,528.477ZM265.446,523.826C265.434,524.032 265.421,524.237 265.407,524.442C265.393,524.647 265.377,524.851 265.361,525.056C265.394,524.647 265.422,524.237 265.446,523.826ZM265.477,523.226L265.486,523.004L265.477,523.226ZM254.651,492.707L255.018,493.149C254.897,493.001 254.775,492.853 254.651,492.707ZM254.331,492.334L254.288,492.284L254.394,492.406C254.373,492.382 254.352,492.358 254.331,492.334ZM253.31,491.211L252.531,490.418L252.662,490.548L253.319,491.22L253.841,491.781C253.9,491.846 253.958,491.911 254.017,491.977L253.31,491.211ZM252.247,490.142L252.191,490.088L252.346,490.237L252.247,490.142ZM251.291,489.258L251.212,489.188L251.291,489.258ZM249.184,487.529L249.23,487.564L249.184,487.529ZM248.554,487.064L248.683,487.158C248.64,487.126 248.597,487.095 248.554,487.064ZM248.135,486.767L248.211,486.82L248.098,486.742L248.135,486.767ZM234.811,480.809L234.889,480.829L234.749,480.793L234.811,480.809Z" style="fill:rgb(2,138,15);"/>
</svg>
